<svg width="1164" height="253" viewBox="0 0 1164 253" fill="none" xmlns="http://www.w3.org/2000/svg">
<g clip-path="url(#clip0_134_862)">
<path d="M426.04 18.6562C450.39 18.6563 468.98 23.5464 482.8 33.6963C483.919 34.5062 484.95 35.4063 485.92 36.4062C488.6 38.8262 490.95 41.2764 493.04 43.8164C494.75 39.2765 496.68 35.6361 499.03 32.5762C504.19 25.8764 512.24 22.1368 520.679 22.5566C521.639 22.6166 522.96 22.6162 524.67 22.6162H529.179L545.38 22.4258H545.7C576.85 22.3258 585.81 23.9364 598.66 37.4062C600.66 39.4963 608.71 47.3558 611.87 52.6758C615.22 58.3757 616.28 65.1461 614.77 71.5859C616.03 69.6562 617.32 67.8163 618.67 66.0166C618.8 65.8167 618.96 65.6258 619.09 65.4658C631.109 50.296 645.99 38.6063 663.45 30.7764C680.42 23.0864 697.4 19.2159 716.02 19.2158C734.64 19.2159 751.33 23.2064 765.599 31.0361C774.329 35.8061 794.779 56.1662 798.099 60.2266C809.569 46.8966 823.39 36.8761 839.27 30.4961C855.64 23.9263 872.87 20.6065 890.429 20.6064C917.649 20.6064 938.4 27.6867 952.28 41.7666C953.79 37.6766 956.14 33.496 959.88 29.916C964.42 25.6661 970.32 23.1861 976.57 22.9561C978.73 22.8561 982.4 22.8262 987.46 22.8262C992.52 22.8262 996.9 22.8961 1000.57 22.9561L1013.07 23.1162C1016.13 22.9262 1020 22.8262 1024.8 22.8262C1028.79 22.8262 1039.52 22.8267 1048.35 29.3965C1052.79 25.7565 1058.4 23.726 1064.2 23.626C1073.47 23.536 1091.45 23.4367 1109.07 23.8867C1117.38 24.1067 1123.7 24.2363 1127.82 24.2363C1137.58 24.2367 1157.59 46.9451 1160.42 52.7158V52.6562L1160.43 52.626C1164.72 61.356 1163.72 71.7964 1157.79 79.5264C1138.88 104.206 1123.9 123.526 1113.08 137.126C1114.94 141.766 1117.3 147.916 1120.32 156.326C1125.87 171.596 1129.89 182.457 1132.4 188.637L1133.89 192.406C1133.95 192.476 1133.98 192.566 1134.02 192.666C1136.88 199.976 1139.56 206.907 1137.78 215.347C1136.66 220.627 1134.05 225.557 1130.25 229.517C1125.41 234.506 1118.78 237.376 1111.79 237.376H1110.27C1107.05 237.246 1104.45 237.187 1102.45 237.187C1100.45 237.187 1097.81 237.246 1094.55 237.376H1050.03C1043.62 237.376 1037.69 234.956 1033.12 230.966C1024.13 238.406 1012.37 238.406 1006.41 238.406C1005.96 238.406 1005.58 238.377 1005.19 238.347H999.13L962.66 238.536C951.65 238.536 942.05 232.866 937.02 223.786C936.57 223.046 936.21 222.336 935.86 221.597C935.8 221.537 935.67 221.506 935.57 221.437C930.03 225.276 924.07 228.586 917.66 231.296C901.56 238.186 884.51 241.666 866.99 241.666C828.08 241.666 799.149 218.346 785.3 200.526C783.85 202.206 782.4 203.816 780.92 205.326L775.349 211.126C775.019 211.416 774.7 211.737 774.38 212.057C764.14 221.596 751.12 228.936 735.79 233.866C721.59 238.376 707.639 240.766 694.3 240.956H693.98C669.78 240.956 650.1 235.256 635.38 224.046C635.02 223.786 634.63 223.496 634.28 223.206C626.9 236.936 613.469 237.356 588.05 237.996C571.84 238.406 547.459 238.637 515.63 238.637C512.63 238.637 507.639 238.576 500.71 238.446C490.37 238.256 481.71 233.036 473.78 220.536C463.89 227.016 451.489 232.526 435.8 236.196C425.72 238.586 414.96 240.326 403.91 241.356C403.14 241.456 402.329 241.486 401.559 241.486C387.06 241.486 372.919 239.326 359.55 235.006C343.349 229.845 312.13 196.446 309.46 188.616C306.69 182.496 305.11 176.436 304.69 170.576C304.37 165.716 304.589 159.946 305.429 152.477C306.259 144.647 310.71 137.656 317.41 133.536C319.53 132.276 321.82 131.277 324.139 130.637C319.089 121.577 315.74 108.756 319.41 91.5566C321.7 80.6367 325.92 70.6158 331.91 61.7559C337.77 53.1261 344.73 45.8462 352.59 40.2363C372.63 25.9064 397.3 18.6563 426.04 18.6562ZM419.03 44.2861C384.16 43.3961 341.129 64.9163 345.559 102.236C348.409 126.346 374.019 134.866 389.019 138.246C404.019 141.626 415.83 146.126 414.24 156.166C411.83 166.546 394.259 169.556 388.229 164.086C384.28 160.506 384.139 154.616 384.139 154.616C384.006 154.616 331.112 154.676 330.91 154.616C330.26 160.376 330.62 165.696 331.42 168.786H331.389C336.829 189.236 357.42 199.066 379.13 201.416C392.299 202.836 405.869 201.446 416.689 198.066C447.389 190.786 465.45 174.296 469.59 151.646C470.92 144.346 470.869 131.496 465.509 123.416C455.64 108.556 434.03 104.306 427.74 103.036C399.64 97.3861 399.38 92.5764 400.03 88.8164H400.04C400.79 84.4464 407.56 80.0264 416.28 80.1064C421.75 80.1565 432.61 82.3565 434 90.0264H483.36C483.36 71.8864 468.89 45.5463 419.03 44.2861ZM890.509 46.2959C876.11 46.296 862.259 48.9658 848.889 54.3457C833.88 60.3657 821.379 70.5764 811.389 84.9463C808.21 89.4562 805.15 95.3862 802.15 102.636C800.21 107.306 798.349 112.456 796.509 118.226C794.29 128.626 793.26 138.096 793.32 146.636H793.29C793.39 160.035 796.25 171.186 801.889 180.105C811.169 194.665 828.15 201.946 852.79 201.946C889.74 201.946 911.659 186.506 924.849 168.216C933.3 156.488 936.343 142.216 936.349 142.186L881.599 141.996C878.119 153.546 871.57 163.946 860.65 161.996C850.72 160.226 846.16 147.556 854.71 118.906C859.33 103.416 867.48 84.6166 880.55 84.6162C891.44 84.6162 889.65 105.656 889.65 105.656H942.88L942.889 105.666C942.889 105.666 946.52 93.4855 944.05 78.8955C943.249 74.1642 935.948 46.2959 890.509 46.2959ZM716.16 44.8965C701.82 44.8965 687.809 47.9865 674.09 54.1465C660.4 60.3665 631.19 77.5866 621.58 120.416C616.78 141.816 617.86 173.636 636.819 189.576C646.619 197.816 661.369 201.236 679.859 201.236C690.749 201.076 702.059 199.107 713.849 195.347C725.669 191.547 735.34 186.197 742.84 179.177L748.54 173.276C756.59 165.226 762.999 154.756 767.899 141.896C770.409 135.296 772.54 128.136 774.21 120.246C775.95 111.906 776.76 104.397 776.66 97.6367C776.66 95.9268 776.629 94.2567 776.469 92.6768V92.666C775.759 84.7057 771.189 64.2661 753.399 53.5264C743.169 47.3466 730.499 44.8965 716.16 44.8965ZM943.66 198.816H1002.7C1002.7 198.816 1015.98 142.127 1017.62 136.937C1023.71 158.746 1029.76 180.166 1035.79 198.816C1035.96 198.818 1098.35 199.495 1098.48 198.816C1098.51 198.786 1069.19 119.086 1069.19 119.086H1069.2L1123.23 48.5664H1062.84L1024.33 107.326H1021.04C1025.1 88.1984 1033.5 48.6175 1033.51 48.5664H977.489L943.66 198.816ZM487.019 198.726L487.05 198.756H597.87L606.309 157.036L551.609 157.396L575.67 48.0957H519.359L487.019 198.726ZM707.099 81.2363C722.379 81.2363 725.199 100.997 718.479 124.847C708.539 160.086 697.319 167.116 684.769 166.246C672.22 165.376 668.51 148.776 677.59 119.437C686.689 90.0069 697.409 81.2366 707.099 81.2363Z" fill="currentColor"/>
<path d="M211.83 0.436221C219.54 -0.783748 227.69 0.466129 233.91 5.3161C238.3 8.73627 249.16 18.0962 252.21 20.5661C258.34 25.536 262.979 31.8459 264.349 39.6257L273.96 94.1559H273.95C276.75 110.076 266.079 125.386 250.189 128.286L247.08 128.866C247.69 130.536 248.2 132.276 248.51 134.076L257.929 187.566C260.769 203.576 250.029 218.886 234.019 221.726L62.4099 251.976C49.2399 254.296 44.0596 247.736 30.8796 235.996C19.5299 225.836 11.7302 220.566 9.53002 210.346L0.959706 161.736C-0.840294 151.396 -0.44045 145.475 5.04955 137.425C10.1096 129.986 18.4103 126.206 28.9001 124.346C28.3501 122.766 27.8693 121.146 27.5593 119.406L20.0593 76.8356C18.0493 65.4559 15.5198 54.326 24.0593 42.7663C31.4393 32.7963 41.0097 30.5656 52.9997 28.7956L211.83 0.436221ZM94.4099 174.725C92.2099 176.735 87.1797 179.395 81.9997 178.175C77.4897 177.105 74.2192 173.175 73.3992 168.595L68.7292 142.095L33.2898 148.345C27.9798 149.295 24.4191 154.356 25.3591 159.656L33.1697 203.906C34.1199 209.216 39.1795 212.785 44.4792 211.836V211.866L44.49 211.876L206.889 183.235C212.199 182.285 215.759 177.226 214.819 171.916L207.01 127.635C206.059 122.325 200.999 118.756 195.689 119.706C190.379 120.656 184.369 121.715 181.359 122.235C176.599 123.085 168.549 120.135 167.179 112.355L164.679 98.1755L94.4099 174.725ZM222.81 33.2556C221.86 27.9158 216.8 24.3859 211.46 25.3259L50.6804 53.9558C45.3704 54.9058 41.84 59.9663 42.78 65.2663L50.7703 110.556V110.596C51.7204 115.906 56.78 119.476 62.0798 118.526L76.4802 115.996C83.13 114.836 89.4402 119.256 90.6003 125.876L93.1003 140.056L163.37 63.5056C166.51 60.0857 171.33 58.7464 175.78 60.0563C180.23 61.3664 183.59 65.0865 184.38 69.6364L189.05 96.0759L222.93 89.9157C228.21 88.9355 231.739 83.906 230.8 78.6061L222.81 33.2556Z" fill="currentColor"/>
</g>
<defs>
<clipPath id="clip0_134_862">
<rect width="1163.06" height="252.439" fill="white"/>
</clipPath>
</defs>
</svg>
